<svg width="35" height="35" viewBox="0 0 35 35" fill="none" xmlns="http://www.w3.org/2000/svg">
<path fill-rule="evenodd" clip-rule="evenodd" d="M17.5007 1.45801C8.64108 1.45801 1.45898 8.64011 1.45898 17.4997C1.45898 26.3592 8.64108 33.5413 17.5007 33.5413C26.3602 33.5413 33.5423 26.3592 33.5423 17.4997C33.5423 8.64011 26.3602 1.45801 17.5007 1.45801ZM13.2014 11.3201C14.5441 10.5779 16.0917 10.2921 17.6109 10.5058C19.1302 10.7196 20.5388 11.4213 21.6246 12.5052C21.6303 12.5109 21.6361 12.5166 21.642 12.5221L24.2309 14.9548H20.9996C20.5578 14.9548 20.1996 15.313 20.1996 15.7548C20.1996 16.1966 20.5578 16.5548 20.9996 16.5548H26.2506C26.6924 16.5548 27.0506 16.1966 27.0506 15.7548V10.5038C27.0506 10.062 26.6924 9.7038 26.2506 9.7038C25.8088 9.7038 25.4506 10.062 25.4506 10.5038V13.9053L22.7462 11.3642C21.4162 10.0401 19.6925 9.18294 17.8338 8.92143C15.9711 8.65935 14.0736 9.00975 12.4273 9.91985C10.781 10.8299 9.47502 12.2504 8.70622 13.9673C7.93742 15.6841 7.74741 17.6043 8.16481 19.4385C8.58222 21.2728 9.58442 22.9216 11.0204 24.1368C12.4564 25.3519 14.2485 26.0674 16.1265 26.1755C18.0045 26.2835 19.8667 25.7784 21.4327 24.736C22.9986 23.6937 24.1834 22.1707 24.8085 20.3965C24.9553 19.9797 24.7365 19.5229 24.3198 19.3761C23.903 19.2293 23.4462 19.4481 23.2994 19.8648C22.7896 21.3118 21.8233 22.554 20.5461 23.4041C19.2689 24.2542 17.7501 24.6663 16.2184 24.5781C14.6867 24.4899 13.2252 23.9064 12.054 22.9153C10.8828 21.9243 10.0654 20.5795 9.72493 19.0835C9.3845 17.5875 9.53947 16.0214 10.1665 14.6212C10.7935 13.2209 11.8586 12.0624 13.2014 11.3201Z" fill="#FF9F9F"/>
</svg>
